<svg xmlns="http://www.w3.org/2000/svg" version="1.1" xmlns:xlink="http://www.w3.org/1999/xlink" xmlns:svgjs="http://svgjs.dev/svgjs" width="1000" height="750" viewBox="0 0 1000 750"><rect width="1000" height="750" fill="#ffffff"></rect><g transform="matrix(0.834,0,0,0.834,82.49454545454546,115.4193570850203)"><svg viewBox="0 0 396 247" data-background-color="#ffffff" preserveAspectRatio="xMidYMid meet" height="623" width="1000" xmlns="http://www.w3.org/2000/svg" xmlns:xlink="http://www.w3.org/1999/xlink"><g id="tight-bounds" transform="matrix(1,0,0,1,0.2400000000000091,-0.09999999999999432)"><svg viewBox="0 0 395.52 247.2" height="247.2" width="395.52"><g><svg></svg></g><g><svg viewBox="0 0 395.52 247.2" height="247.2" width="395.52"><g transform="matrix(1,0,0,1,39.55199999999999,103.5986254226675)"><svg viewBox="0 0 316.416 40.002749154665" height="40.002749154665" width="316.416"><g><svg viewBox="0 0 316.416 40.002749154665" height="40.002749154665" width="316.416"><g><svg viewBox="0 0 316.416 40.002749154665" height="40.002749154665" width="316.416"><g><svg viewBox="0 0 316.416 40.002749154665" height="40.002749154665" width="316.416"><g id="textblocktransform"><svg viewBox="0 0 316.416 40.002749154665" height="40.002749154665" width="316.416" id="textblock"><g><svg viewBox="0 0 316.416 40.002749154665" height="40.002749154665" width="316.416"><g transform="matrix(1,0,0,1,0,0)"><svg width="316.416" viewBox="3.0799999237060547 -37.84000015258789 389.8600158691406 49.290000915527344" height="40.002749154665" data-palette-color="#085f63"><path d="M26.34-26.39L26.34-20.04 11.99-20.04 11.99-26.39 26.34-26.39ZM26.34-37.84L26.34-31.49 12.04-31.49Q10.74-31.49 10.08-30.85 9.42-30.2 9.42-28.96L9.42-28.96 9.42 0 3.08 0 3.08-28.96Q3.08-30.59 3.49-31.88 3.91-33.18 4.6-34.17 5.3-35.16 6.2-35.85 7.1-36.55 8.09-36.99 9.08-37.43 10.08-37.63 11.08-37.84 11.99-37.84L11.99-37.84 26.34-37.84ZM55.69-17.65L55.69-8.74Q55.69-7.42 55.22-5.9 54.76-4.37 53.72-3.06 52.68-1.76 51.01-0.88 49.34 0 46.95 0L46.95 0 35.5 0Q34.18 0 32.65-0.46 31.13-0.93 29.82-1.97 28.51-3 27.63-4.68 26.76-6.35 26.76-8.74L26.76-8.74Q26.76-10.06 27.22-11.6 27.68-13.13 28.72-14.44 29.76-15.75 31.43-16.63 33.1-17.5 35.5-17.5L35.5-17.5 46.95-17.5 46.95-11.45 35.5-11.45Q34.2-11.45 33.49-10.66 32.79-9.86 32.79-8.69L32.79-8.69Q32.79-7.45 33.6-6.75 34.42-6.05 35.54-6.05L35.54-6.05 46.95-6.05Q48.24-6.05 48.95-6.84 49.66-7.62 49.66-8.79L49.66-8.79 49.66-17.65Q49.66-18.9 48.89-19.63 48.12-20.36 46.95-20.36L46.95-20.36 33.01-20.36 33.01-26.39 46.95-26.39Q48.26-26.39 49.79-25.93 51.32-25.46 52.62-24.43 53.93-23.39 54.81-21.72 55.69-20.04 55.69-17.65L55.69-17.65ZM90.2-26.39L90.2 2.54Q90.2 4.17 89.79 5.48 89.37 6.79 88.69 7.78 88.01 8.76 87.1 9.46 86.2 10.16 85.21 10.6 84.22 11.04 83.22 11.24 82.22 11.45 81.32 11.45L81.32 11.45 69.87 11.45 69.87 5.1 81.32 5.1Q82.59 5.1 83.22 4.44 83.86 3.78 83.86 2.54L83.86 2.54 83.86-26.39 90.2-26.39ZM81.32-6.35L81.32 0 69.87 0Q68.5 0 66.95-0.46 65.4-0.93 64.06-1.99 62.71-3.05 61.84-4.75 60.96-6.45 60.96-8.91L60.96-8.91 60.96-26.39 67.3-26.39 67.3-8.91Q67.3-7.67 67.96-7.01 68.62-6.35 69.92-6.35L69.92-6.35 81.32-6.35ZM112.32-14.4L127.26 0 118.11 0 105.31-12.35Q104.24-13.33 104.31-14.79L104.31-14.79Q104.36-15.48 104.67-16.08 104.97-16.67 105.51-17.09L105.51-17.09 117.11-26.44 127.26-26.44 112.32-14.4ZM102.7-37.55L102.7 0 96.35 0 96.35-37.55 102.7-37.55ZM158.36-17.65L158.36-17.65Q158.36-16.33 157.9-14.81 157.44-13.28 156.4-11.98 155.36-10.67 153.69-9.79 152.02-8.91 149.62-8.91L149.62-8.91 138.17-8.91 138.17-14.94 149.62-14.94Q150.92-14.94 151.63-15.73 152.33-16.53 152.33-17.7L152.33-17.7Q152.33-18.95 151.54-19.65 150.75-20.36 149.62-20.36L149.62-20.36 138.17-20.36Q136.88-20.36 136.17-19.57 135.46-18.77 135.46-17.6L135.46-17.6 135.46-8.74Q135.46-7.47 136.26-6.76 137.05-6.05 138.22-6.05L138.22-6.05 149.62-6.05 149.62 0 138.17 0Q136.86 0 135.33-0.46 133.8-0.93 132.5-1.97 131.19-3 130.31-4.68 129.43-6.35 129.43-8.74L129.43-8.74 129.43-17.65Q129.43-18.97 129.9-20.5 130.36-22.02 131.4-23.33 132.44-24.63 134.11-25.51 135.78-26.39 138.17-26.39L138.17-26.39 149.62-26.39Q150.94-26.39 152.47-25.93 153.99-25.46 155.3-24.43 156.61-23.39 157.49-21.72 158.36-20.04 158.36-17.65ZM191.74-26.39L191.74 2.54Q191.74 4.17 191.32 5.48 190.91 6.79 190.22 7.78 189.54 8.76 188.63 9.46 187.73 10.16 186.74 10.6 185.75 11.04 184.75 11.24 183.75 11.45 182.85 11.45L182.85 11.45 171.4 11.45 171.4 5.1 182.85 5.1Q184.12 5.1 184.75 4.44 185.39 3.78 185.39 2.54L185.39 2.54 185.39-26.39 191.74-26.39ZM182.85-6.35L182.85 0 171.4 0Q170.03 0 168.48-0.46 166.93-0.93 165.59-1.99 164.25-3.05 163.37-4.75 162.49-6.45 162.49-8.91L162.49-8.91 162.49-26.39 168.84-26.39 168.84-8.91Q168.84-7.67 169.49-7.01 170.15-6.35 171.45-6.35L171.45-6.35 182.85-6.35ZM221.79-26.39L221.79-20.04 210.7-20.04 210.7 0 204.28 0 204.28-20.04 196.03-20.04 196.03-26.39 204.28-26.39 204.28-35.01 210.7-35.01 210.7-26.39 221.79-26.39ZM255.3-17.5L255.3 0 248.96 0 248.96-17.5Q248.96-18.75 248.32-19.4 247.69-20.04 246.42-20.04L246.42-20.04 234.97-20.04 234.97-26.39 246.42-26.39Q247.32-26.39 248.32-26.18 249.32-25.98 250.31-25.54 251.3-25.1 252.2-24.4 253.11-23.71 253.79-22.72 254.47-21.73 254.89-20.43 255.3-19.14 255.3-17.5L255.3-17.5ZM232.4-37.55L232.4 0 226.06 0 226.06-37.55 232.4-37.55ZM289.51-17.65L289.51-17.65Q289.51-16.33 289.04-14.81 288.58-13.28 287.54-11.98 286.5-10.67 284.83-9.79 283.16-8.91 280.77-8.91L280.77-8.91 269.32-8.91 269.32-14.94 280.77-14.94Q282.06-14.94 282.77-15.73 283.48-16.53 283.48-17.7L283.48-17.7Q283.48-18.95 282.68-19.65 281.89-20.36 280.77-20.36L280.77-20.36 269.32-20.36Q268.02-20.36 267.31-19.57 266.61-18.77 266.61-17.6L266.61-17.6 266.61-8.74Q266.61-7.47 267.4-6.76 268.19-6.05 269.36-6.05L269.36-6.05 280.77-6.05 280.77 0 269.32 0Q268 0 266.47-0.46 264.95-0.93 263.64-1.97 262.33-3 261.45-4.68 260.58-6.35 260.58-8.74L260.58-8.74 260.58-17.65Q260.58-18.97 261.04-20.5 261.5-22.02 262.54-23.33 263.58-24.63 265.25-25.51 266.92-26.39 269.32-26.39L269.32-26.39 280.77-26.39Q282.08-26.39 283.61-25.93 285.14-25.46 286.44-24.43 287.75-23.39 288.63-21.72 289.51-20.04 289.51-17.65ZM322.73-37.55L322.73-8.91Q322.73-7.28 322.32-5.97 321.9-4.66 321.22-3.67 320.53-2.69 319.63-1.99 318.73-1.29 317.74-0.85 316.75-0.42 315.74-0.21 314.72 0 313.82 0L313.82 0 302.37 0Q300.73 0 299.44-0.42 298.15-0.83 297.16-1.53 296.17-2.22 295.47-3.13 294.78-4.03 294.34-5.02 293.9-6.01 293.69-7.02 293.48-8.03 293.48-8.91L293.48-8.91 293.48-17.5Q293.48-19.95 294.37-21.64 295.27-23.34 296.6-24.4 297.93-25.46 299.49-25.93 301.05-26.39 302.37-26.39L302.37-26.39 313.82-26.39 313.82-20.04 302.42-20.04Q301.15-20.04 300.49-19.4 299.83-18.75 299.83-17.5L299.83-17.5 299.83-8.96Q299.83-7.67 300.48-7.01 301.12-6.35 302.37-6.35L302.37-6.35 313.82-6.35Q315.11-6.35 315.75-7.01 316.38-7.67 316.38-8.91L316.38-8.91 316.38-37.55 322.73-37.55ZM357.18-17.65L357.18-17.65Q357.18-16.33 356.71-14.81 356.25-13.28 355.21-11.98 354.17-10.67 352.5-9.79 350.83-8.91 348.44-8.91L348.44-8.91 336.99-8.91 336.99-14.94 348.44-14.94Q349.73-14.94 350.44-15.73 351.15-16.53 351.15-17.7L351.15-17.7Q351.15-18.95 350.35-19.65 349.56-20.36 348.44-20.36L348.44-20.36 336.99-20.36Q335.69-20.36 334.98-19.57 334.28-18.77 334.28-17.6L334.28-17.6 334.28-8.74Q334.28-7.47 335.07-6.76 335.86-6.05 337.04-6.05L337.04-6.05 348.44-6.05 348.44 0 336.99 0Q335.67 0 334.14-0.46 332.62-0.93 331.31-1.97 330-3 329.13-4.68 328.25-6.35 328.25-8.74L328.25-8.74 328.25-17.65Q328.25-18.97 328.71-20.5 329.17-22.02 330.21-23.33 331.25-24.63 332.92-25.51 334.59-26.39 336.99-26.39L336.99-26.39 348.44-26.39Q349.76-26.39 351.28-25.93 352.81-25.46 354.11-24.43 355.42-23.39 356.3-21.72 357.18-20.04 357.18-17.65ZM386.2-26.39L392.94-26.39Q391.87-23.05 390.43-19.8 388.99-16.55 387.12-13.61 385.25-10.67 382.94-8.17 380.64-5.66 377.84-3.85 375.05-2.03 371.76-0.99 368.48 0.05 364.65 0.05L364.65 0.05Q363.99 0.05 363.4-0.2 362.81-0.44 362.37-0.87 361.94-1.29 361.69-1.87 361.45-2.44 361.45-3.1L361.45-3.1 361.45-26.39 367.79-26.39 367.79-6.54Q370.11-6.54 372.25-7.54 374.39-8.54 376.29-10.19 378.2-11.84 379.82-13.94 381.44-16.04 382.71-18.25 383.98-20.46 384.87-22.58 385.76-24.71 386.2-26.39L386.2-26.39Z" opacity="1" transform="matrix(1,0,0,1,0,0)" fill="#085f63" class="undefined-text-0" data-fill-palette-color="primary" id="text-0"></path></svg></g></svg></g></svg></g></svg></g></svg></g></svg></g></svg></g><g mask="url(#a4f09a78-286c-418f-a932-ada7fce20147)"><g transform="matrix(2.5068241555390856, 0, 0, 2.5068241555390856, 102.89425723054228, 0.9999999999999858)"><svg xmlns="http://www.w3.org/2000/svg" xmlns:xlink="http://www.w3.org/1999/xlink" version="1.1" x="0" y="0" viewBox="12.982999801635742 1 75.68599700927734 97.81300354003906" enable-background="new 0 0 100 100" xml:space="preserve" height="97.81300354003906" width="75.68599700927734" class="icon-none" data-fill-palette-color="accent" id="none"><g fill="#49beb7" data-fill-palette-color="accent"><polygon fill-rule="evenodd" clip-rule="evenodd" points="12.983,10.59 30.001,98.813 24.129,39.764 53.15,37.872 53.096,27.989    64.549,1 53.622,18.977  " fill="#49beb7" data-fill-palette-color="accent"></polygon><polygon fill-rule="evenodd" clip-rule="evenodd" points="59.389,54.548 64.549,1.007 55.809,40.723 36.197,41.768 37.767,62.23    30.001,98.813 42.058,58.914  " fill="#49beb7" data-fill-palette-color="accent"></polygon><polygon fill-rule="evenodd" clip-rule="evenodd" points="62.8,67.182 63.349,56.729 47.37,60.484 47.338,72.281 30.001,98.813    51.681,71.197  " fill="#49beb7" data-fill-palette-color="accent"></polygon><polygon fill-rule="evenodd" clip-rule="evenodd" points="65.711,62.394 80.552,57.663 82.061,45.131 66.162,47.226  " fill="#49beb7" data-fill-palette-color="accent"></polygon><polygon fill-rule="evenodd" clip-rule="evenodd" points="72.07,44.502 83.058,43.085 84.639,32.807 76.56,32.434 64.549,1    72.979,31.967  " fill="#49beb7" data-fill-palette-color="accent"></polygon><polygon fill-rule="evenodd" clip-rule="evenodd" points="87.413,31.294 88.669,21.788 79.125,19.094 64.549,1 79.032,23.437    78.61,30.437  " fill="#49beb7" data-fill-palette-color="accent"></polygon></g></svg></g></g></svg></g><defs><mask id="a4f09a78-286c-418f-a932-ada7fce20147"><rect width="640" height="400" fill="white"></rect><rect width="348.05760000000004" height="58.89012717353839" fill="black" x="145.97119999999998" y="170.5549364132308" id="transform-me" transform="matrix(1,0,0,1,-122.24000000000001,-76.4)"></rect></mask></defs></svg><rect width="395.52" height="247.2" fill="none" stroke="none" visibility="hidden"></rect></g></svg></g></svg>